<svg width="208" height="532" viewBox="0 0 208 532" fill="none" xmlns="http://www.w3.org/2000/svg">
<rect width="208" height="532" fill="#E5E5E5"/>
<g id="blind_man 1">
<path id="left arm" d="M39.2079 152.096L44.4358 160.888L64.823 176.372C64.823 176.372 74.7108 181.594 74.7108 182.301C74.7108 183.008 111.116 196.696 126.48 200.506C141.843 204.315 161.429 207.445 162.885 210.187C164.342 212.929 173.079 233.396 197.835 226.76C222.591 220.124 190.859 205.163 190.859 205.163L170.472 196.414C170.472 196.414 126.975 179.898 123.276 174.4C119.577 168.902 105.029 164.096 105.029 164.096L94.8358 155.057L56.7409 143.206L39.2079 152.096Z" fill="#FABDBD"/>
<g id="left leg">
<path id="Vector" d="M111.05 502.493L108.659 492.006C108.659 492.006 108.659 482.943 105.357 481.187C102.056 479.431 93.0618 418.598 93.0618 418.598C93.0618 418.598 93.3619 405.155 90.9609 403.399C88.5599 401.643 90.9609 399.711 90.9609 399.711C90.9517 397.776 90.5928 395.858 89.9004 394.044C89.1133 392.071 88.5659 390.015 88.2697 387.917C88.2697 387.917 89.4702 383.528 88.2697 382.367C87.4294 381.547 88.4998 380.016 86.5389 376.953C85.274 375.133 83.7362 373.508 81.977 372.133C75.184 366.534 81.8869 303.106 83.7277 286.805C84.0079 284.375 84.1779 283 84.1779 283H100.185L102.186 290.014L105.377 302.979C105.377 302.979 107.478 304.335 107.478 306.091C107.478 307.847 120.063 344.955 120.063 344.955C120.987 346.45 121.789 348.012 122.464 349.628C122.765 350.799 125.466 352.847 125.466 352.847C124.951 353.948 124.685 355.144 124.685 356.354C124.685 357.564 124.951 358.76 125.466 359.861C127.257 363.364 132.359 377.977 130.558 384.991C128.757 392.005 126.656 392.59 126.656 392.59C126.656 392.59 124.866 397.78 127.857 399.711C130.848 401.643 128.757 405.155 128.757 405.155L132.659 437.893C132.659 437.893 132.359 452.526 136.851 457.765C141.343 463.003 141.943 475.588 141.943 475.588L138.561 476.992L137.951 477.256L137.751 477.344C137.751 477.344 144.644 484.358 146.755 486.406C148.866 488.455 128.427 513.028 111.05 502.493Z" fill="#6B5151"/>
<path id="Vector 2" d="M157.461 514.553C154.571 514.423 138.791 521.093 138.791 521.093C138.791 521.093 133.791 523.883 121.021 525.673C112.681 526.853 111.571 522.833 111.801 519.903C111.879 518.941 112.091 517.995 112.431 517.093V499.363C112.431 499.363 138.431 483.493 140.431 482.493C140.683 482.381 140.955 482.324 141.231 482.323C144.441 482.193 153.641 485.463 158.611 488.973C164.101 492.863 171.091 490.483 171.091 490.483C171.091 490.483 184.651 479.553 188.221 487.553C188.432 488.011 188.596 488.491 188.711 488.983C191.321 499.553 160.361 514.643 157.461 514.553Z" fill="#3F3D56"/>
</g>
<g id="right leg">
<path id="Vector 3" d="M86.0572 293.247C84.7566 312.836 74.6323 379.864 74.6323 379.864C74.6323 379.864 68.9398 404.408 67.7393 405.286C66.5388 406.164 59.0555 411.139 59.0555 411.139C59.0555 411.139 58.7554 422.543 56.3544 425.772C53.9533 429.001 53.0529 437.176 53.0529 437.176C53.0529 437.176 49.1612 453.535 47.9607 461.72C46.7602 469.904 42.5684 481.006 42.5684 481.006V498.838C14.8965 526.514 8.0835 507.501 6.48281 498.917C6.25051 497.73 6.09018 496.531 6.00262 495.327L21.5893 402.984C21.5893 402.984 24.8808 398.594 24.2805 396.262C23.6802 393.931 25.481 390.994 25.481 390.994L25.431 385.736C25.431 385.736 29.0826 381.064 25.431 378.43C21.7794 375.796 25.431 355.924 25.431 355.924C25.431 355.924 21.2892 344.53 23.4301 341.292C25.5711 338.053 23.4302 332.814 24.9208 329.888C26.4114 326.961 24.9208 329.888 19.5285 321.996C16.7072 317.879 14.3062 310.416 12.6455 304.232C11.1248 298.544 10.2344 293.94 10.2344 293.94C10.2344 293.94 84.2664 283.716 86.0672 288.087C86.2956 289.8 86.2923 291.535 86.0572 293.247Z" fill="#6B5151"/>
<path id="Vector 4" d="M85.9785 522.012C85.4417 524.829 83.895 527.38 81.6039 529.227C78.2927 531.9 46.7369 532.858 40.3254 530.568C33.9139 528.278 13.4753 527.406 8.35811 527.214C3.24094 527.023 1.25427 522.529 0.140538 520.325C-0.170506 519.693 0.0602707 518.304 0.582021 516.637C1.8563 512.545 4.82628 506.777 5.4584 506.164C5.94001 505.704 6.40156 503.826 6.7126 502.178C6.98351 500.751 7.1641 499.495 7.1641 499.495C20.8801 508.425 38.9206 493.248 38.9206 493.248C39.5965 492.904 40.3684 492.77 41.128 492.865C44.5796 493.267 48.3423 497.589 48.3423 499.495C48.3423 501.824 57.8541 506.202 57.8541 506.202C60.5632 509.173 72.5835 514.72 72.5835 514.72C72.5835 514.72 80.8012 514.912 84.4133 517.873C85.0186 518.38 85.4796 519.026 85.7533 519.75C86.027 520.474 86.1044 521.252 85.9785 522.012Z" fill="#3F3D56"/>
</g>
<g id="head">
<path id="Vector 5" d="M83.639 69.7901C81.1293 72.96 79.1072 76.4698 77.6364 80.2087C72.8743 92.4613 76.4459 102.334 76.4459 102.334C76.4459 102.334 33.0871 92.9783 37.2889 88.3055C39.83 85.4668 41.9309 74.5507 43.1915 66.3953C44.0118 61.0787 44.482 56.9328 44.482 56.9328C44.482 56.9328 96.6246 53.2355 83.639 69.7901Z" fill="#FABDBD"/>
<path id="Vector 6" d="M97.028 48.7365C97.0375 55.3226 94.6901 61.7056 90.3905 66.785C86.0908 71.8643 80.1085 75.3217 73.4748 76.561C66.8411 77.8003 59.9719 76.7438 54.0514 73.5738C48.1309 70.4038 43.5302 65.3189 41.0425 59.1957C38.5548 53.0726 38.336 46.2949 40.4239 40.0313C42.5117 33.7677 46.7754 28.4107 52.4797 24.8839C58.184 21.3571 64.9715 19.8815 71.672 20.7116C78.3725 21.5416 84.566 24.6253 89.1847 29.4309C94.2186 34.6613 97.0227 41.5635 97.028 48.7365Z" fill="#FABDBD"/>
<path id="Vector 7" d="M48.5316 43.8408C51.4344 44.6322 53.5459 48.146 56.531 47.933C58.7176 47.7696 60.2796 45.6567 61.4353 43.6523C63.3126 40.4227 64.9019 37.0068 66.1822 33.4501C66.7789 31.4125 67.6462 29.4808 68.757 27.715C69.9668 26.0336 71.906 24.7759 73.8517 25.1296C75.9711 25.5183 77.4447 27.6036 79.4006 28.6842C82.8897 30.6695 87.1195 29.0591 90.7484 27.4148C92.5455 26.6225 94.5064 25.492 94.7615 23.4613C94.9417 22.0319 94.1495 20.6172 94.284 19.1791C94.4185 17.741 95.373 16.7145 96.0049 15.5194C96.6367 14.3242 96.9731 12.6157 96.0121 11.6867C95.3125 11.0166 94.2509 11.0925 93.3696 10.7709C91.1741 9.91245 90.5362 6.77419 88.5636 5.40899C86.4337 3.93968 83.6719 5.03146 81.1498 5.22295C77.5206 5.49155 74.0841 3.77027 70.6753 2.41189C67.2666 1.05351 63.3943 0.0409572 60.1004 1.63751C58.1352 2.60106 56.6365 4.35861 54.9854 5.8547C51.7555 8.75086 47.8586 10.6485 43.7044 11.3479C41.6591 11.6944 39.4165 11.8003 37.8363 13.2258C35.8478 15.0252 35.6245 18.254 36.089 21.0232C36.5535 23.7924 37.5345 26.4994 37.3997 29.2936C37.1904 33.7308 34.2257 37.4514 33.3226 41.7784C33.1149 42.4702 33.057 43.2052 33.1534 43.9268C33.2498 44.6483 33.4979 45.3373 33.8786 45.9407C34.5004 46.5765 35.2109 47.1025 35.9837 47.499C36.9773 48.1611 37.8253 49.0504 38.4676 50.104C39.1098 51.1576 39.5306 52.3498 39.7002 53.596C39.8701 54.8593 39.768 56.1492 39.9831 57.4016C40.3971 59.3149 41.4863 60.9814 43.018 62.0445C44.5498 63.1076 46.4023 63.483 48.1796 63.0904C48.4171 59.781 47.9684 56.4521 46.8661 53.3461C45.7095 50.1914 41.4175 41.9374 48.5316 43.8408Z" fill="#7C5C5C"/>
</g>
<g id="body">
<path id="Vector 8" d="M86.8031 118.826C79.4199 116.007 66.5444 110.573 60.7319 105.052C54.9194 99.5303 44.2548 97.6866 38.0121 97.0232C38.7224 94.8673 38.6323 92.1456 38.7524 89.8531C38.9525 85.951 42.9442 85.951 42.9442 85.951C54.3391 87.6972 81.1107 104.067 81.1107 104.067C80.1102 107.764 86.503 118.29 86.503 118.29C86.6131 118.465 86.7031 118.641 86.8031 118.826Z" fill="#6C63FF"/>
<path id="Vector 9" d="M101.85 282.353C101.85 282.353 68.5054 287.611 66.5045 290.342C64.5037 293.074 49.4972 293.845 40.4933 295.015C31.4894 296.186 15.3225 293.65 14.1219 292.869C7.11892 288.313 10.5204 234.816 13.5217 228.182C16.523 221.549 15.5225 184.547 12.7213 169.739C9.92011 154.93 14.1219 136.425 14.1219 136.425C14.1219 136.425 18.3137 123.372 17.5234 120.641C16.7331 117.909 21.5251 112.076 21.5251 112.076C21.5251 112.076 28.9183 100.184 32.71 98.4182C33.4048 98.0928 34.0198 97.6256 34.5134 97.0484C35.0071 96.4711 35.3678 95.7972 35.5712 95.0722C36.2815 92.9163 36.1915 90.1946 36.3115 87.9021C36.5116 84 40.5033 84 40.5033 84C51.8982 85.7462 78.6698 102.115 78.6698 102.115C77.6693 105.813 84.0621 116.339 84.0621 116.339C84.1722 116.504 84.2622 116.68 84.3622 116.865C91.3652 129.732 96.4575 169.134 96.4575 169.134C96.4575 169.134 96.8076 187.952 96.7476 201.804C96.7476 208.721 96.5775 214.398 96.2474 215.891C95.6671 218.544 96.8176 230.865 97.9881 242.591C98.7884 250.697 99.6089 258.511 99.859 262.647C100.519 272.803 101.85 282.353 101.85 282.353Z" fill="#6C63FF"/>
</g>
<g id="right arm">
<path id="Vector 10" d="M157.65 287.131C157.882 284.874 158.935 282.772 160.619 281.207C162.303 279.642 164.507 278.716 166.83 278.599C169.153 278.481 171.443 279.178 173.285 280.564C175.126 281.951 176.397 283.934 176.869 286.156C177.718 286.699 178.515 287.316 179.25 287.999C179.634 288.346 180.119 288.569 180.639 288.638C181.158 288.707 181.686 288.618 182.152 288.383C182.618 288.149 182.998 287.78 183.241 287.327C183.484 286.875 183.579 286.36 183.511 285.853C183.506 285.798 183.506 285.743 183.511 285.687C183.181 283.423 182.355 281.255 181.089 279.33C179.823 277.406 178.147 275.769 176.174 274.532C174.202 273.295 171.98 272.487 169.658 272.162C167.337 271.837 164.971 272.003 162.722 272.649C160.472 273.295 158.391 274.406 156.621 275.906C154.851 277.406 153.433 279.26 152.463 281.342C151.493 283.424 150.994 285.685 151 287.971C151.006 290.258 151.517 292.517 152.498 294.594C153.444 291.675 155.233 289.084 157.65 287.131Z" fill="#6C63FF"/>
<g id="Group 2">
<g id="Group 1">
<path id="Vector 11" d="M158.24 286.888H151.047V512.204H158.24V286.888Z" fill="#6C63FF"/>
<g id="right arm 2">
<path id="Vector 12" d="M66.0104 189.901L69.6019 202.037L83.608 223.41C83.608 223.41 90.401 230.62 90.401 231.595C90.401 232.571 115.412 251.467 125.966 256.725C136.521 261.983 149.977 266.304 150.977 270.089C151.978 273.874 157.98 302.125 174.988 292.965C191.995 283.805 170.195 263.153 170.195 263.153L156.189 251.076C156.189 251.076 126.306 228.278 123.765 220.689C121.224 213.099 111.23 206.466 111.23 206.466L104.227 193.989L78.0556 177.629L66.0104 189.901Z" fill="#FABDBD"/>
<path id="Vector 13" d="M60.2435 123.591C60.2435 123.591 35.873 134.507 43.4663 151.881C51.0595 169.255 67.6367 201.233 67.6367 201.233C67.6367 201.233 65.6358 190.073 70.0377 189.097C74.4396 188.122 102.202 193.185 102.202 193.185C102.202 193.185 95.8088 179.937 97.1994 172.533C98.59 165.129 86.6249 117.162 60.2435 123.591Z" fill="#6C63FF"/>
</g>
</g>
</g>
</g>
<path id="goggles" d="M102.013 46.8293C102.013 46.8293 93.8594 41.2493 89.0073 47.2683H86.086C83.1647 39.0837 68.7085 42.8785 68.7085 42.8785L49 46.0294L49.3702 47.2683L68.7085 45.7368C68.7085 45.7368 69.1587 53.4043 71.7798 55.8919C74.401 58.3795 80.0934 56.9845 80.0934 56.9845C83.5349 56.5553 85.1856 51.2875 85.7959 48.6926L88.6171 48.8487C88.1069 51.4923 87.7668 56.6528 92.3788 58.4478C98.6715 60.8573 100.622 55.3749 100.622 55.3749C100.622 55.3749 102.763 48.3121 102.013 46.8293Z" fill="#3F3D56"/>
</g>
</svg>
