<svg width="2338" height="1676" viewBox="0 0 2338 1676" fill="none" xmlns="http://www.w3.org/2000/svg">
<g id="drops" clip-path="url(#clip0)">
<path id="Vector" d="M175.725 723.117C167.075 752.993 156.149 760.105 145.8 758.066C135.451 756.028 129.599 745.612 138.249 715.736C146.898 685.86 177.123 649.875 177.123 649.875C177.123 649.875 184.375 693.241 175.725 723.117Z" fill="#CCCCCC"/>
<path id="Vector_2" d="M152.566 1243.65C143.916 1273.53 132.99 1280.64 122.641 1278.6C112.292 1276.56 106.44 1266.14 115.09 1236.27C123.74 1206.39 153.964 1170.41 153.964 1170.41C153.964 1170.41 161.216 1213.77 152.566 1243.65Z" fill="#CCCCCC"/>
<path id="Vector_3" d="M190.429 1030.84C185.151 1049.07 178.484 1053.41 172.169 1052.16C165.854 1050.92 162.283 1044.56 167.561 1026.33C172.839 1008.1 191.282 986.147 191.282 986.147C191.282 986.147 195.707 1012.61 190.429 1030.84Z" fill="#CCCCCC"/>
<path id="Vector_4" d="M25.4225 1119.19C20.1445 1137.42 13.4772 1141.76 7.1625 1140.51C0.847776 1139.27 -2.72316 1132.91 2.55481 1114.68C7.83278 1096.45 26.2758 1074.49 26.2758 1074.49C26.2758 1074.49 30.7006 1100.96 25.4225 1119.19Z" fill="#CCCCCC"/>
<path id="Vector_5" d="M1238.13 257.503C1229.48 287.379 1218.56 294.49 1208.21 292.452C1197.86 290.413 1192.01 279.997 1200.66 250.122C1209.31 220.246 1239.53 184.261 1239.53 184.261C1239.53 184.261 1246.78 227.627 1238.13 257.503Z" fill="#CCCCCC"/>
<path id="Vector_6" d="M1276 44.6918C1270.72 62.922 1264.05 67.261 1257.74 66.0172C1251.42 64.7734 1247.85 58.4175 1253.13 40.1874C1258.41 21.9572 1276.85 0 1276.85 0C1276.85 0 1281.27 26.4618 1276 44.6918Z" fill="#CCCCCC"/>
<path id="Vector_7" d="M1110.99 133.039C1105.71 151.269 1099.04 155.608 1092.73 154.364C1086.41 153.121 1082.84 146.765 1088.12 128.535C1093.4 110.304 1111.84 88.3472 1111.84 88.3472C1111.84 88.3472 1116.27 114.809 1110.99 133.039Z" fill="#CCCCCC"/>
<path id="Vector_8" d="M780.747 1193.51C772.098 1223.38 761.171 1230.49 750.822 1228.46C740.474 1226.42 734.621 1216 743.271 1186.13C751.921 1156.25 782.146 1120.27 782.146 1120.27C782.146 1120.27 789.397 1163.63 780.747 1193.51Z" fill="#CCCCCC"/>
<path id="Vector_9" d="M818.61 980.696C813.332 998.926 806.665 1003.26 800.35 1002.02C794.035 1000.78 790.464 994.421 795.742 976.191C801.02 957.961 819.463 936.004 819.463 936.004C819.463 936.004 823.888 962.466 818.61 980.696Z" fill="#CCCCCC"/>
<path id="Vector_10" d="M653.604 1069.04C648.326 1087.27 641.659 1091.61 635.344 1090.37C629.029 1089.12 625.458 1082.77 630.736 1064.54C636.014 1046.31 654.457 1024.35 654.457 1024.35C654.457 1024.35 658.882 1050.81 653.604 1069.04Z" fill="#CCCCCC"/>
<path id="Vector_11" d="M609.952 302.871C601.302 332.747 590.375 339.858 580.027 337.819C569.678 335.781 563.826 325.365 572.475 295.489C581.125 265.613 611.35 229.629 611.35 229.629C611.35 229.629 618.601 272.995 609.952 302.871Z" fill="#CCCCCC"/>
<path id="Vector_12" d="M586.793 823.404C578.143 853.28 567.217 860.391 556.868 858.352C546.519 856.314 540.667 845.898 549.317 816.022C557.966 786.146 588.191 750.162 588.191 750.162C588.191 750.162 595.443 793.528 586.793 823.404Z" fill="#CCCCCC"/>
<path id="Vector_13" d="M624.656 610.592C619.378 628.822 612.71 633.161 606.396 631.917C600.081 630.674 596.51 624.318 601.788 606.088C607.066 587.857 625.509 565.9 625.509 565.9C625.509 565.9 629.934 592.362 624.656 610.592Z" fill="#CCCCCC"/>
<path id="Vector_14" d="M459.649 698.939C454.371 717.17 447.704 721.509 441.389 720.265C435.075 719.021 431.504 712.665 436.782 694.435C442.06 676.205 460.503 654.248 460.503 654.248C460.503 654.248 464.927 680.709 459.649 698.939Z" fill="#CCCCCC"/>
<path id="Vector_15" d="M1052.86 324.361C1044.21 354.237 1033.29 361.348 1022.94 359.309C1012.59 357.271 1006.74 346.855 1015.39 316.979C1024.04 287.103 1054.26 251.119 1054.26 251.119C1054.26 251.119 1061.51 294.485 1052.86 324.361Z" fill="#CCCCCC"/>
<path id="Vector_16" d="M1029.7 844.893C1021.05 874.77 1010.13 881.881 999.779 879.842C989.43 877.804 983.578 867.388 992.228 837.512C1000.88 807.636 1031.1 771.652 1031.1 771.652C1031.1 771.652 1038.35 815.017 1029.7 844.893Z" fill="#CCCCCC"/>
<path id="Vector_17" d="M1067.57 632.082C1062.29 650.312 1055.62 654.651 1049.31 653.407C1042.99 652.163 1039.42 645.808 1044.7 627.577C1049.98 609.347 1068.42 587.39 1068.42 587.39C1068.42 587.39 1072.84 613.852 1067.57 632.082Z" fill="#CCCCCC"/>
<path id="Vector_18" d="M1463.93 424.647C1455.28 454.523 1444.35 461.634 1434.01 459.595C1423.66 457.557 1417.81 447.141 1426.45 417.265C1435.1 387.389 1465.33 351.405 1465.33 351.405C1465.33 351.405 1472.58 394.771 1463.93 424.647Z" fill="#CCCCCC"/>
<path id="Vector_19" d="M1336.79 300.183C1331.51 318.413 1324.84 322.752 1318.53 321.508C1312.21 320.264 1308.64 313.908 1313.92 295.678C1319.2 277.448 1337.64 255.491 1337.64 255.491C1337.64 255.491 1342.07 281.953 1336.79 300.183Z" fill="#CCCCCC"/>
<path id="Vector_20" d="M1669.47 283.769C1660.82 313.645 1649.89 320.756 1639.54 318.717C1629.19 316.679 1623.34 306.263 1631.99 276.387C1640.64 246.511 1670.86 210.527 1670.86 210.527C1670.86 210.527 1678.11 253.893 1669.47 283.769Z" fill="#CCCCCC"/>
<path id="Vector_21" d="M1646.31 804.301C1637.66 834.178 1626.73 841.289 1616.38 839.25C1606.03 837.212 1600.18 826.796 1608.83 796.92C1617.48 767.044 1647.7 731.06 1647.7 731.06C1647.7 731.06 1654.96 774.425 1646.31 804.301Z" fill="#CCCCCC"/>
<path id="Vector_22" d="M1684.17 591.49C1678.89 609.72 1672.22 614.059 1665.91 612.815C1659.59 611.571 1656.02 605.216 1661.3 586.985C1666.58 568.755 1685.02 546.798 1685.02 546.798C1685.02 546.798 1689.45 573.26 1684.17 591.49Z" fill="#CCCCCC"/>
<path id="Vector_23" d="M2080.53 384.055C2071.88 413.931 2060.96 421.042 2050.61 419.003C2040.26 416.965 2034.41 406.549 2043.06 376.673C2051.71 346.797 2081.93 310.813 2081.93 310.813C2081.93 310.813 2089.18 354.179 2080.53 384.055Z" fill="#CCCCCC"/>
<path id="Vector_24" d="M1953.39 259.591C1948.11 277.821 1941.44 282.16 1935.13 280.916C1928.81 279.672 1925.24 273.316 1930.52 255.086C1935.8 236.856 1954.24 214.899 1954.24 214.899C1954.24 214.899 1958.67 241.361 1953.39 259.591Z" fill="#CCCCCC"/>
<path id="Vector_25" d="M1909.74 625.219C1901.09 655.095 1890.16 662.206 1879.81 660.168C1869.46 658.129 1863.61 647.713 1872.26 617.837C1880.91 587.962 1911.14 551.977 1911.14 551.977C1911.14 551.977 1918.39 595.343 1909.74 625.219Z" fill="#CCCCCC"/>
<path id="Vector_26" d="M1886.58 1145.75C1877.93 1175.63 1867 1182.74 1856.65 1180.7C1846.3 1178.66 1840.45 1168.25 1849.1 1138.37C1857.75 1108.49 1887.98 1072.51 1887.98 1072.51C1887.98 1072.51 1895.23 1115.88 1886.58 1145.75Z" fill="#CCCCCC"/>
<path id="Vector_27" d="M1924.44 932.94C1919.16 951.171 1912.5 955.51 1906.18 954.266C1899.87 953.022 1896.3 946.666 1901.57 928.436C1906.85 910.206 1925.29 888.249 1925.29 888.249C1925.29 888.249 1929.72 914.71 1924.44 932.94Z" fill="#CCCCCC"/>
<path id="Vector_28" d="M2320.81 725.505C2312.16 755.381 2301.23 762.492 2290.88 760.454C2280.53 758.415 2274.68 747.999 2283.33 718.124C2291.98 688.248 2322.2 652.263 2322.2 652.263C2322.2 652.263 2329.46 695.629 2320.81 725.505Z" fill="#CCCCCC"/>
<path id="Vector_29" d="M2193.66 601.041C2188.38 619.271 2181.72 623.61 2175.4 622.366C2169.09 621.123 2165.52 614.767 2170.79 596.537C2176.07 578.306 2194.52 556.349 2194.52 556.349C2194.52 556.349 2198.94 582.811 2193.66 601.041Z" fill="#CCCCCC"/>
</g>
<defs>
<clipPath id="clip0">
<rect width="2338" height="1676" fill="white"/>
</clipPath>
</defs>
</svg>
